<?xml version="1.0" encoding="utf-8"?>
<!-- Generator: Adobe Illustrator 25.1.0, SVG Export Plug-In . SVG Version: 6.00 Build 0)  -->
<svg version="1.1" id="Calque_1" xmlns="http://www.w3.org/2000/svg" xmlns:xlink="http://www.w3.org/1999/xlink" x="0px" y="0px"
	 viewBox="0 0 60.1 73.8" style="enable-background:new 0 0 60.1 73.8;" xml:space="preserve">
<style type="text/css">
	.st0{fill:#353535;}
	.st1{fill:#FFFFFF;}
</style>
<path class="st0" d="M71.2,101.8L71.2,101.8C71.2,101.8,71.2,101.8,71.2,101.8L71.2,101.8z"/>
<path class="st0" d="M112.5,101.8L112.5,101.8C112.5,101.8,112.5,101.8,112.5,101.8L112.5,101.8z"/>
<g>
	<path class="st1" d="M60.1,0v73.8H48.9V43.3c-0.6-0.5-1.2-1.1-1.8-1.6c-4.2-4.4-6.8-10.5-6.8-17.3C40.4,11.1,50.5,0.3,60.1,0z"/>
	<path class="st1" d="M32.6,2.2V22c0,5.8-4.7,10.6-10.6,10.6h0v41.3H10.6V32.6h0C4.7,32.6,0,27.8,0,22V2.2C0,1,1,0,2.2,0h2.6
		C6,0,7,1,7,2.2v19.2c0,1.3,1.1,2.1,2.4,2.1h0c1.3,0,2.4-0.8,2.4-2.1V2.2c0-1.2,1-2.2,2.2-2.2h4.8c1.2,0,2.2,1,2.2,2.2v19.2
		c0,1.3,1.1,2.1,2.4,2.1h0c1.3,0,2.4-0.8,2.4-2.1V2.2c0-1.2,1-2.2,2.2-2.2h2.6C31.6,0,32.6,1,32.6,2.2z"/>
</g>
</svg>
