<?xml version="1.0" encoding="utf-8"?>
<!-- Generator: Adobe Illustrator 25.1.0, SVG Export Plug-In . SVG Version: 6.00 Build 0)  -->
<svg version="1.1" id="Calque_1" xmlns="http://www.w3.org/2000/svg" xmlns:xlink="http://www.w3.org/1999/xlink" x="0px" y="0px"
	 viewBox="0 0 134.3 142.3" style="enable-background:new 0 0 134.3 142.3;" xml:space="preserve">
<style type="text/css">
	.st0{fill:#FFFFFF;}
</style>
<g>
	<path class="st0" d="M133.3,54.8l-15.8,14.6c-0.3,0.3-0.6,0.7-0.8,1.1l-4.6,12.1c-3.7,9.9-13.3,16.5-23.9,16.5h0
		c-1.7,0-3.1-1.4-3-3.1l0.3-7.2l1.2-28.1c0.1-1.7-1.3-3.1-3-3.1H68c-1.6,0-2.9,1.2-3,2.8l-1.5,20.1c-0.4,4.9-4.5,8.8-9.4,8.9h0
		c-5.4,0.1-9.8-4.4-9.7-9.8l0.6-22l0.2-7.1l0,0c0.6-15.3,12.7-27.6,28-28.4c1-0.1,1.9-0.1,2.8-0.2c7-0.4,10.3-8.6,10.3-8.7l0.4-0.9
		L106,0.4c1.5-0.9,3.5-0.3,4.3,1.3L134,51.3C134.6,52.5,134.3,53.9,133.3,54.8z"/>
	<path class="st0" d="M82.3,99.1c-0.6,12-10.2,21.6-22.2,22.2c-2.1,0.1-4,0.2-5.7,0.3c-7.5,0.4-11.5,7.4-12.6,9.8
		c-0.2,0.5-0.6,0.9-1.1,1.2l-14.8,9.1c-1.5,0.9-3.5,0.3-4.3-1.3L0.3,96C-0.3,94.8,0,93.4,1,92.5l14.7-13.6c0.3-0.3,0.6-0.7,0.8-1.1
		l6-15.8C25,55,31.6,50.5,39,50.5c0.1,0,0.2,0,0.2,0c1.7,0,3.1,1.4,3,3.1c-0.1,1.9-0.2,3.9-0.2,3.9l-0.6,23.4
		c-0.2,6.4,5,11.6,11.4,11.5h0c7.4-0.1,13.5-5.9,14-13.2l1-15.8c0.1-1.6,1.4-2.8,3-2.8h9.8c1.7,0,3.1,1.4,3,3.1l-1,25L82.3,99.1
		L82.3,99.1z"/>
</g>
</svg>
