<?xml version="1.0" encoding="utf-8"?>
<!-- Generator: Adobe Illustrator 25.1.0, SVG Export Plug-In . SVG Version: 6.00 Build 0)  -->
<svg version="1.1" id="Calque_1" xmlns="http://www.w3.org/2000/svg" xmlns:xlink="http://www.w3.org/1999/xlink" x="0px" y="0px"
	 viewBox="0 0 77 67.2" style="enable-background:new 0 0 77 67.2;" xml:space="preserve">
<style type="text/css">
	.st0{fill:none;stroke:#353535;stroke-width:3;stroke-miterlimit:10;}
	.st1{fill:url(#SVGID_1_);}
</style>
<path class="st0" d="M69.2,7.8L69.2,7.8c-7.9-7.9-20.7-7.9-28.5,0l0,0c-1.2,1.2-3.1,1.2-4.3,0l0,0c-7.9-7.9-20.6-7.9-28.5,0l0,0
	C0,15.7,0,28.4,7.9,36.3l2.1,2.1L35.6,64c1.6,1.6,4.3,1.6,5.9,0l25.6-25.6l2.1-2.1C77.1,28.4,77.1,15.7,69.2,7.8z"/>
<linearGradient id="SVGID_1_" gradientUnits="userSpaceOnUse" x1="49.7188" y1="-15.0306" x2="27.1812" y2="59.6122">
	<stop  offset="0" style="stop-color:#9356DC"/>
	<stop  offset="1" style="stop-color:#FF79DA"/>
</linearGradient>
<path class="st1" d="M38.5,66.7c-1.5,0-3-0.6-4-1.6L6.8,37.4c-8.4-8.4-8.4-22.2,0-30.6c4.1-4.1,9.5-6.4,15.3-6.4s11.2,2.3,15.3,6.4
	c0.3,0.3,0.7,0.5,1.1,0.5c0.4,0,0.8-0.2,1.1-0.5c4-4.1,9.5-6.4,15.3-6.4c5.8,0,11.2,2.3,15.3,6.4c8.4,8.4,8.4,22.2,0,30.6L42.5,65.1
	C41.5,66.2,40,66.7,38.5,66.7z"/>
</svg>
