<?xml version="1.0" encoding="utf-8"?>
<!-- Generator: Adobe Illustrator 25.1.0, SVG Export Plug-In . SVG Version: 6.00 Build 0)  -->
<svg version="1.1" id="Calque_1" xmlns="http://www.w3.org/2000/svg" xmlns:xlink="http://www.w3.org/1999/xlink" x="0px" y="0px"
	 viewBox="0 0 17.2 26.5" style="enable-background:new 0 0 17.2 26.5;" xml:space="preserve">
<style type="text/css">
	.st0{fill:#9356DC;}
</style>
<path class="st0" d="M0,0.4v25.7c0,0.2,0.2,0.4,0.4,0.4h16.4c0.2,0,0.4-0.2,0.4-0.4V0.4C17.2,0.2,17,0,16.8,0H0.4C0.2,0,0,0.2,0,0.4
	z M8.6,24.9c-1,0-1.8-0.8-1.8-1.8s0.8-1.8,1.8-1.8s1.8,0.8,1.8,1.8C10.4,24.1,9.6,24.9,8.6,24.9z M14.8,19.5H2.4
	c-0.2,0-0.4-0.2-0.4-0.4V2.4C2,2.2,2.2,2,2.4,2h12.4c0.2,0,0.4,0.2,0.4,0.4v16.8C15.2,19.4,15,19.5,14.8,19.5z"/>
</svg>
