<?xml version="1.0" encoding="utf-8"?>
<!-- Generator: Adobe Illustrator 25.1.0, SVG Export Plug-In . SVG Version: 6.00 Build 0)  -->
<svg version="1.1" id="Calque_1" xmlns="http://www.w3.org/2000/svg" xmlns:xlink="http://www.w3.org/1999/xlink" x="0px" y="0px"
	 viewBox="0 0 41.3 56.9" style="enable-background:new 0 0 41.3 56.9;" xml:space="preserve">
<style type="text/css">
	.st0{fill:#353535;}
</style>
<path class="st0" d="M20.7,0C9.2,0,0,9.2,0,20.7c0,0.2,0,0.3,0,0.5c0,0,0,0,0,0c0,11.3,20.7,35.8,20.7,35.8s20.7-24.2,20.7-35.8
	c0,0,0,0,0,0c0-0.2,0-0.3,0-0.5C41.3,9.2,32.1,0,20.7,0z M20.7,30c-4.9,0-8.9-4-8.9-8.9c0-4.9,4-8.9,8.9-8.9c4.9,0,8.9,4,8.9,8.9
	C29.6,26.1,25.6,30,20.7,30z"/>
<path class="st0" d="M0,21.1L0,21.1C0,21.1,0,21.1,0,21.1L0,21.1z"/>
<path class="st0" d="M41.3,21.1L41.3,21.1C41.3,21.1,41.3,21.1,41.3,21.1L41.3,21.1z"/>
</svg>
