<?xml version="1.0" encoding="utf-8"?>
<!-- Generator: Adobe Illustrator 25.1.0, SVG Export Plug-In . SVG Version: 6.00 Build 0)  -->
<svg version="1.1" id="Calque_1" xmlns="http://www.w3.org/2000/svg" xmlns:xlink="http://www.w3.org/1999/xlink" x="0px" y="0px"
	 viewBox="0 0 23.3 23.8" style="enable-background:new 0 0 23.3 23.8;" xml:space="preserve">
<style type="text/css">
	.st0{fill:#353535;}
</style>
<g>
	<g>
		<path class="st0" d="M23.3,9.3c0,0.4-0.1,0.8-0.2,1.2c-0.5,1.1-1.5,1.8-2.7,1.8s-2.3-0.7-2.7-1.8h-1c-0.2,1-1.2,1.8-2.2,1.8
			c-1.1,0-2-0.8-2.2-1.8h-1.1c-0.2,1-1.2,1.8-2.2,1.8c-1.1,0-2-0.8-2.2-1.8h-1c-0.5,1.1-1.5,1.8-2.7,1.8c-1.2,0-2.3-0.7-2.7-1.8
			C0.1,10.1,0,9.7,0,9.3C0,9,0,8.7,0.1,8.4l0,0l2.3-7.9C2.5,0.2,2.7,0,3,0h17.3c0.3,0,0.5,0.2,0.6,0.4l2.2,7.8l0,0.1l0.1,0.4
			C23.3,8.9,23.3,9.1,23.3,9.3z"/>
	</g>
	<path class="st0" d="M22.2,13.5v9.7c0,0.3-0.3,0.6-0.6,0.6H1.8c-0.3,0-0.6-0.3-0.6-0.6v-9.7h1.4c0.3,0,0.6,0.2,0.6,0.6v3.3
		c0,0.3,0.3,0.6,0.6,0.6h15.8c0.3,0,0.6-0.3,0.6-0.6V14c0-0.3,0.2-0.6,0.6-0.6H22.2z"/>
</g>
</svg>
